<svg width="73" height="60" viewBox="0 0 73 60" fill="none" xmlns="http://www.w3.org/2000/svg">
<g id="Group 96">
<path id="Vector 4" d="M65.5001 31.5C62.5829 37.4097 53 39.5 53 41C53 42.5 54.0001 57.5 53 57.5C51.9999 57.5 23.5 57.5 22.5 57.5C21.5 57.5 19 52 19 52" stroke="white" stroke-width="5" stroke-linecap="round"/>
<path id="Vector 2" d="M3 21C3 21 3 27 3 28C3 29 12 29 12 28C12 27 12 21 12 21" stroke="white" stroke-width="5" stroke-linecap="round"/>
<path id="Vector 3" d="M61.5 21C61.5 21 61.5 27 61.5 28C61.5 29 70.5 29 70.5 28C70.5 27 70.5 21 70.5 21" stroke="white" stroke-width="5" stroke-linecap="round"/>
<rect id="Rectangle 57" x="19" y="6.5" width="35" height="19" rx="9.5" stroke="white" stroke-width="5"/>
<g id="Group 95">
<circle id="Ellipse 8" cx="28.5" cy="16" r="3" fill="white"/>
<circle id="Ellipse 9" cx="44.5" cy="16" r="3" fill="white"/>
</g>
<path id="Line 2" d="M39 2.99997C39 1.61926 37.8807 0.49997 36.5 0.49997C35.1193 0.49997 34 1.61926 34 2.99997L39 2.99997ZM39 5.06152V2.99997L34 2.99997V5.06152H39Z" fill="white"/>
<path id="Vector 1" d="M49.9546 34.9996C51.335 35.0247 52.4745 33.926 52.4996 32.5455C52.5247 31.165 51.4259 30.0256 50.0454 30.0005L49.9546 34.9996ZM16.5 40.5001C16.5 43.0001 16.5 43.0001 16.5 43.0001C16.5 43.0001 16.5001 43.0001 16.5001 43.0001C16.5001 43.0001 16.5002 43.0001 16.5002 43.0001C16.5003 43.0001 16.5003 43.0001 16.5004 43.0001C16.5004 43.0001 16.5005 43.0001 16.5006 43.0001C16.5006 43.0001 16.5007 43.0001 16.5008 43.0001C16.5009 43.0001 16.501 43.0001 16.5011 43.0001C16.5012 43.0001 16.5013 43.0001 16.5015 43.0001C16.5016 43.0001 16.5017 43.0001 16.5018 43.0001C16.502 43.0001 16.5021 43.0001 16.5023 43.0001C16.5024 43.0001 16.5026 43.0001 16.5027 43.0001C16.5029 43.0001 16.5031 43.0001 16.5033 43.0001C16.5034 43.0001 16.5036 43.0001 16.5038 43.0001C16.504 43.0001 16.5042 43.0001 16.5044 43.0001C16.5046 43.0001 16.5049 43.0001 16.5051 43.0001C16.5053 43.0001 16.5055 43.0001 16.5058 43.0001C16.506 43.0001 16.5063 43.0001 16.5065 43.0001C16.5068 43.0001 16.507 43.0001 16.5073 43.0001C16.5076 43.0001 16.5078 43.0001 16.5081 43.0001C16.5084 43.0001 16.5087 43.0001 16.509 43.0001C16.5093 43.0001 16.5096 43.0001 16.5099 43.0001C16.5102 43.0001 16.5105 43.0001 16.5108 43.0001C16.5112 43.0001 16.5115 43.0001 16.5118 43.0001C16.5122 43.0001 16.5125 43.0001 16.5129 43.0001C16.5132 43.0001 16.5136 43.0001 16.514 43.0001C16.5143 43.0001 16.5147 43.0001 16.5151 43.0001C16.5155 43.0001 16.5158 43.0001 16.5162 43.0001C16.5166 43.0001 16.517 43.0001 16.5175 43.0001C16.5179 43.0001 16.5183 43.0001 16.5187 43.0001C16.5191 43.0001 16.5196 43.0001 16.52 43.0001C16.5204 43.0001 16.5209 43.0001 16.5213 43.0001C16.5218 43.0001 16.5222 43.0001 16.5227 43.0001C16.5729 43.0001 16.5243 43.0001 16.5879 43.0001C16.6578 43.0001 16.7133 43.0001 16.8281 43.0001C17.0595 43.0001 17.2843 43.0001 17.625 43.0001C18.25 43.0001 19 43.0001 19.5 43.0001V38.0001C19 38.0001 18.25 38.0001 17.625 38.0001C17.2843 38.0001 17.0595 38.0001 16.8281 38.0001C16.7133 38.0001 16.6578 38.0001 16.5879 38.0001C16.5243 38.0001 16.5729 38.0001 16.5227 38.0001C16.5089 38.0001 16.5159 38.0001 16.5058 38.0001C16.5055 38.0001 16.5053 38.0001 16.5051 38.0001C16.5049 38.0001 16.5046 38.0001 16.5044 38.0001C16.5042 38.0001 16.504 38.0001 16.5038 38.0001C16.5036 38.0001 16.5034 38.0001 16.5033 38.0001C16.5031 38.0001 16.5029 38.0001 16.5027 38.0001C16.5026 38.0001 16.5024 38.0001 16.5023 38.0001C16.5021 38.0001 16.502 38.0001 16.5018 38.0001C16.5017 38.0001 16.5016 38.0001 16.5015 38.0001C16.5013 38.0001 16.5012 38.0001 16.5011 38.0001C16.501 38.0001 16.5009 38.0001 16.5008 38.0001C16.5007 38.0001 16.5006 38.0001 16.5006 38.0001C16.5005 38.0001 16.5004 38.0001 16.5004 38.0001C16.5003 38.0001 16.5003 38.0001 16.5002 38.0001C16.5002 38.0001 16.5001 38.0001 16.5001 38.0001C16.5001 38.0001 16.5 38.0001 16.5 38.0001C16.5 38.0001 16.5 38.0001 16.5 40.5001ZM19.5 43.0001C20.4585 43.0001 21.1543 42.5121 21.55 42.0581C21.8985 41.6581 22.0688 41.2366 22.1526 40.9942C22.3246 40.4972 22.3944 39.9586 22.4332 39.5664C22.5143 38.7466 22.5325 37.657 22.5612 36.7682C22.593 35.7836 22.6378 34.9637 22.7374 34.3841C22.7883 34.0873 22.83 34.0046 22.8109 34.0455C22.7975 34.0741 22.7357 34.2021 22.5922 34.359C22.4397 34.5258 22.1773 34.7428 21.7906 34.8718L20.2094 30.1283C19.0608 30.5112 18.5136 31.4312 18.2809 31.9292C18.0255 32.4759 17.8914 33.0612 17.8095 33.5379C17.6434 34.5051 17.5945 35.654 17.5638 36.607C17.53 37.6556 17.517 38.4723 17.4575 39.0743C17.4259 39.3931 17.3981 39.4444 17.4274 39.3594C17.44 39.3231 17.5277 39.0632 17.7804 38.7733C18.0801 38.4294 18.6665 38.0001 19.5 38.0001V43.0001ZM21.7906 34.8718C21.5515 34.9514 21.4409 34.9375 21.7818 34.9089C22.011 34.8897 22.3404 34.8712 22.7721 34.8547C23.6306 34.8219 24.7989 34.8007 26.1851 34.789C28.9522 34.7658 32.5132 34.7812 36.0404 34.8125C39.5647 34.8436 43.0436 34.8904 45.6422 34.9295C46.9412 34.949 48.0198 34.9665 48.7734 34.9792C49.1502 34.9855 49.4457 34.9906 49.6469 34.9942C49.7476 34.9959 49.8246 34.9973 49.8764 34.9982C49.9023 34.9987 49.9219 34.9991 49.935 34.9993C49.9415 34.9994 49.9465 34.9995 49.9497 34.9996C49.9514 34.9996 49.9526 34.9996 49.9534 34.9996C49.9538 34.9996 49.9541 34.9996 49.9543 34.9996C49.9545 34.9996 49.9546 34.9996 50 32.5001C50.0454 30.0005 50.0453 30.0005 50.0451 30.0005C50.0449 30.0005 50.0445 30.0005 50.0441 30.0004C50.0432 30.0004 50.0419 30.0004 50.0402 30.0004C50.0369 30.0003 50.0318 30.0002 50.0251 30.0001C50.0118 29.9999 49.9919 29.9995 49.9657 29.999C49.9134 29.9981 49.8358 29.9967 49.7346 29.9949C49.5323 29.9914 49.2356 29.9863 48.8575 29.9799C48.1013 29.9672 47.0197 29.9496 45.7172 29.93C43.1127 29.8909 39.6228 29.844 36.0846 29.8127C32.5493 29.7814 28.954 29.7656 26.1431 29.7892C24.7402 29.801 23.514 29.8227 22.5814 29.8583C22.1176 29.876 21.7024 29.898 21.3639 29.9264C21.1372 29.9454 20.636 29.9862 20.2094 30.1283L21.7906 34.8718Z" fill="white"/>
<g id="Rectangle 58">
<mask id="path-9-inside-1_49_4" fill="white">
<rect x="24.5" y="38" width="24" height="15" rx="2"/>
</mask>
<rect x="24.5" y="38" width="24" height="15" rx="2" stroke="white" stroke-width="10" mask="url(#path-9-inside-1_49_4)"/>
</g>
<rect id="Rectangle 59" x="5.5" y="29" width="5" height="14" rx="2.5" fill="white"/>
<rect id="Rectangle 60" x="5.5" y="43" width="5" height="14" rx="2.5" transform="rotate(-90 5.5 43)" fill="white"/>
</g>
</svg>
