<svg width="168" height="60" viewBox="0 0 168 60" fill="none" xmlns="http://www.w3.org/2000/svg">
<path d="M0 0H77.4464V10.4869H0V0Z" fill="#240079"/>
<path d="M0 9.48804H6.12885V57.9273H0V9.48804Z" fill="#240079"/>
<path d="M3.90027 51.9348H76.3321V57.9273H3.90027V51.9348Z" fill="#240079"/>
<path d="M70.7604 38.9512H76.3321V55.9299H70.7604V38.9512Z" fill="#240079"/>
<path d="M41.5763 37.149V40.1084H27.5667V37.149H41.5763Z" fill="#240079"/>
<path d="M13.1281 20.6523L26.3191 25.8784V29.4989L13.1281 34.662V31.01L22.3838 27.6729L13.1281 24.3043V20.6523Z" fill="#240079"/>
<path d="M158.683 43.2516C159.454 43.2516 160.293 43.2969 161.199 43.3876C162.106 43.4631 162.99 43.6294 163.851 43.8863L163.625 46.1757C162.96 46.1605 162.182 46.1454 161.29 46.1303C160.398 46.1152 159.522 46.1077 158.661 46.1077C158.237 46.1077 157.875 46.1228 157.573 46.153C157.285 46.1681 157.051 46.2285 156.87 46.3343C156.689 46.425 156.56 46.5686 156.485 46.765C156.409 46.9615 156.371 47.2335 156.371 47.581C156.371 48.1099 156.492 48.4953 156.734 48.7371C156.991 48.9788 157.421 49.198 158.026 49.3944L161.041 50.3691C162.295 50.7922 163.164 51.3665 163.647 52.0918C164.131 52.8172 164.373 53.7692 164.373 54.9479C164.373 55.8395 164.267 56.5799 164.055 57.1693C163.844 57.7586 163.511 58.2195 163.058 58.552C162.605 58.8844 162.008 59.1186 161.267 59.2547C160.527 59.4058 159.62 59.4813 158.547 59.4813C158.033 59.4813 157.301 59.4435 156.348 59.368C155.396 59.3075 154.308 59.1413 153.084 58.8693L153.311 56.4212C154.203 56.4364 154.973 56.459 155.623 56.4893C156.288 56.5044 156.855 56.5195 157.323 56.5346C157.792 56.5346 158.2 56.5346 158.547 56.5346C159.152 56.5346 159.62 56.4968 159.953 56.4212C160.3 56.3457 160.542 56.1946 160.678 55.9679C160.814 55.7412 160.882 55.4163 160.882 54.9932C160.882 54.6305 160.829 54.3434 160.723 54.1319C160.633 53.9052 160.474 53.7314 160.247 53.6105C160.036 53.4745 159.741 53.3536 159.363 53.2478L156.19 52.1598C154.996 51.7216 154.15 51.1473 153.651 50.4371C153.152 49.7269 152.903 48.7899 152.903 47.6264C152.903 46.7197 153.009 45.9868 153.22 45.4276C153.447 44.8534 153.787 44.4076 154.24 44.0903C154.709 43.7729 155.306 43.5538 156.031 43.4329C156.772 43.312 157.656 43.2516 158.683 43.2516Z" fill="#240079"/>
<path d="M144.785 43.5463V55.2426C144.785 55.6203 144.891 55.9075 145.103 56.1039C145.314 56.3004 145.616 56.3986 146.009 56.3986H151.472L151.631 59.0053C150.558 59.1262 149.432 59.1942 148.253 59.2093C147.09 59.2395 145.926 59.2547 144.763 59.2547C143.629 59.2547 142.768 58.9524 142.178 58.348C141.604 57.7284 141.317 56.9426 141.317 55.9906V43.5463H144.785Z" fill="#240079"/>
<path d="M131.99 43.2289C133.229 43.2289 134.28 43.3649 135.141 43.637C136.002 43.8938 136.69 44.3321 137.204 44.9517C137.733 45.5561 138.118 46.3872 138.36 47.445C138.601 48.4877 138.722 49.7949 138.722 51.3665C138.722 52.9381 138.601 54.2528 138.36 55.3106C138.118 56.3533 137.733 57.1844 137.204 57.804C136.69 58.4084 136.002 58.8467 135.141 59.1187C134.28 59.3756 133.229 59.504 131.99 59.504C130.751 59.504 129.701 59.3756 128.839 59.1187C127.978 58.8467 127.283 58.4084 126.754 57.804C126.225 57.1844 125.84 56.3533 125.598 55.3106C125.356 54.2528 125.235 52.9381 125.235 51.3665C125.235 49.7949 125.356 48.4877 125.598 47.445C125.84 46.3872 126.225 45.5561 126.754 44.9517C127.283 44.3321 127.978 43.8938 128.839 43.637C129.701 43.3649 130.751 43.2289 131.99 43.2289ZM131.99 45.9717C131.189 45.9717 130.562 46.1303 130.109 46.4477C129.671 46.765 129.353 47.3166 129.157 48.1024C128.975 48.8731 128.885 49.9611 128.885 51.3665C128.885 52.7567 128.975 53.8448 129.157 54.6306C129.353 55.4164 129.671 55.9679 130.109 56.2853C130.562 56.6026 131.189 56.7613 131.99 56.7613C132.776 56.7613 133.388 56.6026 133.826 56.2853C134.28 55.9679 134.597 55.4164 134.778 54.6306C134.975 53.8448 135.073 52.7567 135.073 51.3665C135.073 49.9611 134.975 48.8731 134.778 48.1024C134.597 47.3166 134.28 46.765 133.826 46.4477C133.388 46.1303 132.776 45.9717 131.99 45.9717Z" fill="#240079"/>
<path d="M116.384 43.2289C117.623 43.2289 118.674 43.3649 119.535 43.637C120.396 43.8938 121.084 44.3321 121.598 44.9517C122.127 45.5561 122.512 46.3872 122.754 47.445C122.996 48.4877 123.116 49.7949 123.116 51.3665C123.116 52.9381 122.996 54.2528 122.754 55.3106C122.512 56.3533 122.127 57.1844 121.598 57.804C121.084 58.4084 120.396 58.8467 119.535 59.1187C118.674 59.3756 117.623 59.504 116.384 59.504C115.145 59.504 114.095 59.3756 113.233 59.1187C112.372 58.8467 111.677 58.4084 111.148 57.804C110.619 57.1844 110.234 56.3533 109.992 55.3106C109.75 54.2528 109.629 52.9381 109.629 51.3665C109.629 49.7949 109.75 48.4877 109.992 47.445C110.234 46.3872 110.619 45.5561 111.148 44.9517C111.677 44.3321 112.372 43.8938 113.233 43.637C114.095 43.3649 115.145 43.2289 116.384 43.2289ZM116.384 45.9717C115.583 45.9717 114.956 46.1303 114.503 46.4477C114.065 46.765 113.747 47.3166 113.551 48.1024C113.369 48.8731 113.279 49.9611 113.279 51.3665C113.279 52.7567 113.369 53.8448 113.551 54.6306C113.747 55.4164 114.065 55.9679 114.503 56.2853C114.956 56.6026 115.583 56.7613 116.384 56.7613C117.17 56.7613 117.782 56.6026 118.22 56.2853C118.674 55.9679 118.991 55.4164 119.172 54.6306C119.369 53.8448 119.467 52.7567 119.467 51.3665C119.467 49.9611 119.369 48.8731 119.172 48.1024C118.991 47.3166 118.674 46.765 118.22 46.4477C117.782 46.1303 117.17 45.9717 116.384 45.9717Z" fill="#240079"/>
<path d="M103.696 43.5463V59.1867H100.228V43.5463H103.696ZM108.411 43.5463V46.2663H95.5355V43.5463H108.411Z" fill="#240079"/>
<path d="M167.508 16.4715L164.947 31.1599C164.902 31.4319 164.766 31.6585 164.539 31.8399C164.312 32.0212 164.04 32.1119 163.723 32.1119H160.481C160.179 32.1119 159.907 32.0212 159.665 31.8399C159.439 31.6585 159.303 31.4243 159.257 31.1372L157.512 20.9596C157.467 20.612 157.421 20.272 157.376 19.9396C157.331 19.592 157.285 19.252 157.24 18.9196H156.809C156.779 19.252 156.741 19.592 156.696 19.9396C156.651 20.2871 156.605 20.6272 156.56 20.9596L154.815 31.1372C154.769 31.4243 154.626 31.6585 154.384 31.8399C154.157 32.0212 153.893 32.1119 153.591 32.1119H150.327C150.024 32.1119 149.752 32.0212 149.511 31.8399C149.284 31.6585 149.148 31.4319 149.103 31.1599L146.541 16.4715H150.032L151.664 27.3518C151.709 27.6842 151.747 28.0393 151.777 28.4171C151.807 28.7949 151.838 29.1954 151.868 29.6185H152.299C152.359 29.2558 152.42 28.878 152.48 28.4851C152.556 28.0771 152.616 27.6993 152.661 27.3518L154.384 17.5369C154.429 17.2195 154.565 16.9626 154.792 16.7662C155.019 16.5697 155.291 16.4715 155.608 16.4715H158.464C158.781 16.4715 159.046 16.5697 159.257 16.7662C159.484 16.9626 159.62 17.2195 159.665 17.5369L161.411 27.3744C161.471 27.7371 161.532 28.1149 161.592 28.5078C161.653 28.8856 161.706 29.2558 161.751 29.6185H162.204C162.234 29.2558 162.265 28.878 162.295 28.4851C162.34 28.0922 162.378 27.7296 162.408 27.3971L164.018 16.4715H167.508Z" fill="#240079"/>
<path d="M138.232 16.1542C139.472 16.1542 140.522 16.2902 141.383 16.5622C142.245 16.8191 142.932 17.2573 143.446 17.8769C143.975 18.4813 144.36 19.3125 144.602 20.3703C144.844 21.413 144.965 22.7201 144.965 24.2917C144.965 25.8633 144.844 27.178 144.602 28.2358C144.36 29.2785 143.975 30.1096 143.446 30.7292C142.932 31.3337 142.245 31.7719 141.383 32.0439C140.522 32.3008 139.472 32.4292 138.232 32.4292C136.993 32.4292 135.943 32.3008 135.082 32.0439C134.22 31.7719 133.525 31.3337 132.996 30.7292C132.467 30.1096 132.082 29.2785 131.84 28.2358C131.599 27.178 131.478 25.8633 131.478 24.2917C131.478 22.7201 131.599 21.413 131.84 20.3703C132.082 19.3125 132.467 18.4813 132.996 17.8769C133.525 17.2573 134.22 16.8191 135.082 16.5622C135.943 16.2902 136.993 16.1542 138.232 16.1542ZM138.232 18.8969C137.432 18.8969 136.804 19.0556 136.351 19.3729C135.913 19.6903 135.596 20.2418 135.399 21.0276C135.218 21.7983 135.127 22.8863 135.127 24.2917C135.127 25.682 135.218 26.77 135.399 27.5558C135.596 28.3416 135.913 28.8932 136.351 29.2105C136.804 29.5278 137.432 29.6865 138.232 29.6865C139.018 29.6865 139.63 29.5278 140.069 29.2105C140.522 28.8932 140.839 28.3416 141.021 27.5558C141.217 26.77 141.315 25.682 141.315 24.2917C141.315 22.8863 141.217 21.7983 141.021 21.0276C140.839 20.2418 140.522 19.6903 140.069 19.3729C139.63 19.0556 139.018 18.8969 138.232 18.8969Z" fill="#240079"/>
<path d="M123.419 16.2449C124.794 16.2449 125.905 16.3884 126.751 16.6756C127.612 16.9476 128.239 17.4236 128.632 18.1036C129.04 18.7685 129.244 19.6978 129.244 20.8917C129.244 21.617 129.146 22.2592 128.95 22.8184C128.768 23.3624 128.458 23.8006 128.02 24.1331C127.582 24.4655 126.985 24.6771 126.23 24.7678V24.8811C126.502 24.9264 126.781 25.0322 127.068 25.1984C127.37 25.3647 127.65 25.614 127.907 25.9464C128.164 26.2638 128.353 26.6945 128.474 27.2385L129.834 32.1119H126.184L124.983 27.3518C124.847 26.838 124.643 26.4829 124.371 26.2865C124.114 26.09 123.751 25.9918 123.283 25.9918C122.255 25.9918 121.386 25.9918 120.676 25.9918C119.981 25.9767 119.392 25.9616 118.908 25.9464C118.44 25.9313 118.016 25.9162 117.639 25.9011L117.707 23.3851H123.351C123.955 23.3851 124.431 23.3246 124.779 23.2037C125.141 23.0677 125.391 22.8335 125.527 22.501C125.678 22.1686 125.753 21.7077 125.753 21.1183C125.753 20.5139 125.678 20.053 125.527 19.7356C125.391 19.4032 125.141 19.1765 124.779 19.0556C124.431 18.9196 123.955 18.8516 123.351 18.8516C121.93 18.8516 120.729 18.8592 119.747 18.8743C118.764 18.8894 118.092 18.9121 117.729 18.9423L117.389 16.4715C118.024 16.396 118.621 16.3431 119.18 16.3129C119.739 16.2827 120.351 16.2675 121.016 16.2675C121.681 16.2524 122.482 16.2449 123.419 16.2449ZM120.812 16.4715V32.1119H117.389V16.4715H120.812Z" fill="#240079"/>
<path d="M108.743 16.2449C110.118 16.2449 111.228 16.3884 112.075 16.6756C112.936 16.9476 113.563 17.4236 113.956 18.1036C114.364 18.7685 114.568 19.6978 114.568 20.8917C114.568 21.617 114.47 22.2592 114.273 22.8184C114.092 23.3624 113.782 23.8006 113.344 24.1331C112.906 24.4655 112.309 24.6771 111.553 24.7678V24.8811C111.825 24.9264 112.105 25.0322 112.392 25.1984C112.694 25.3647 112.974 25.614 113.231 25.9464C113.488 26.2638 113.677 26.6945 113.797 27.2385L115.157 32.1119H111.508L110.307 27.3518C110.171 26.838 109.967 26.4829 109.695 26.2865C109.438 26.09 109.075 25.9918 108.607 25.9918C107.579 25.9918 106.71 25.9918 106 25.9918C105.305 25.9767 104.715 25.9616 104.232 25.9464C103.763 25.9313 103.34 25.9162 102.962 25.9011L103.03 23.3851H108.675C109.279 23.3851 109.755 23.3246 110.103 23.2037C110.465 23.0677 110.715 22.8335 110.851 22.501C111.002 22.1686 111.077 21.7077 111.077 21.1183C111.077 20.5139 111.002 20.053 110.851 19.7356C110.715 19.4032 110.465 19.1765 110.103 19.0556C109.755 18.9196 109.279 18.8516 108.675 18.8516C107.254 18.8516 106.053 18.8592 105.071 18.8743C104.088 18.8894 103.416 18.9121 103.053 18.9423L102.713 16.4715C103.348 16.396 103.945 16.3431 104.504 16.3129C105.063 16.2827 105.675 16.2675 106.34 16.2675C107.005 16.2524 107.806 16.2449 108.743 16.2449ZM106.136 16.4715V32.1119H102.713V16.4715H106.136Z" fill="#240079"/>
<path d="M93.3408 16.1542C94.5799 16.1542 95.6302 16.2902 96.4915 16.5622C97.3529 16.8191 98.0404 17.2573 98.5542 17.8769C99.0831 18.4813 99.4685 19.3125 99.7103 20.3703C99.952 21.413 100.073 22.7201 100.073 24.2917C100.073 25.8633 99.952 27.178 99.7103 28.2358C99.4685 29.2785 99.0831 30.1096 98.5542 30.7292C98.0404 31.3337 97.3529 31.7719 96.4915 32.0439C95.6302 32.3008 94.5799 32.4292 93.3408 32.4292C92.1016 32.4292 91.0514 32.3008 90.19 32.0439C89.3287 31.7719 88.6335 31.3337 88.1046 30.7292C87.5757 30.1096 87.1904 29.2785 86.9486 28.2358C86.7068 27.178 86.5859 25.8633 86.5859 24.2917C86.5859 22.7201 86.7068 21.413 86.9486 20.3703C87.1904 19.3125 87.5757 18.4813 88.1046 17.8769C88.6335 17.2573 89.3287 16.8191 90.19 16.5622C91.0514 16.2902 92.1016 16.1542 93.3408 16.1542ZM93.3408 18.8969C92.5399 18.8969 91.9127 19.0556 91.4594 19.3729C91.0212 19.6903 90.7038 20.2418 90.5074 21.0276C90.326 21.7983 90.2354 22.8863 90.2354 24.2917C90.2354 25.682 90.326 26.77 90.5074 27.5558C90.7038 28.3416 91.0212 28.8932 91.4594 29.2105C91.9127 29.5278 92.5399 29.6865 93.3408 29.6865C94.1266 29.6865 94.7386 29.5278 95.1768 29.2105C95.6302 28.8932 95.9475 28.3416 96.1288 27.5558C96.3253 26.77 96.4235 25.682 96.4235 24.2917C96.4235 22.8863 96.3253 21.7983 96.1288 21.0276C95.9475 20.2418 95.6302 19.6903 95.1768 19.3729C94.7386 19.0556 94.1266 18.8969 93.3408 18.8969Z" fill="#240079"/>
<path d="M82.3916 16.4715C83.2076 16.4715 83.6307 16.8946 83.6609 17.7409L84.2503 32.1119H81.0542L80.5329 19.1462H80.1249L77.6088 28.8931C77.4728 29.6185 77.0194 29.9812 76.2488 29.9812H74.0727C73.302 29.9812 72.8336 29.6185 72.6673 28.8931L70.1513 19.1462H69.7659L69.2899 32.1119H66.0712L66.6605 17.7409C66.6907 16.8946 67.1214 16.4715 67.9525 16.4715H71.194C71.9344 16.4715 72.3878 16.8417 72.554 17.5822L74.5714 25.4477C74.662 25.8104 74.7376 26.1806 74.798 26.5584C74.8585 26.9211 74.9265 27.2913 75.0021 27.6691H75.2967C75.3723 27.2913 75.4403 26.9211 75.5007 26.5584C75.5763 26.1806 75.6518 25.8028 75.7274 25.4251L77.7221 17.5822C77.8732 16.8417 78.3266 16.4715 79.0822 16.4715H82.3916Z" fill="#240079"/>
<path d="M58.0684 16.1995C59.1565 16.1995 60.0934 16.2977 60.8792 16.4942C61.665 16.6755 62.277 17.0307 62.7152 17.5596C63.1534 18.0885 63.3726 18.8516 63.3726 19.8489C63.3726 20.4383 63.297 20.9899 63.1459 21.5037C63.0099 22.0023 62.753 22.5237 62.3752 23.0677C62.0125 23.6117 61.4836 24.2539 60.7885 24.9944L56.6857 29.2332C57.0635 29.1727 57.4413 29.135 57.8191 29.1198C58.212 29.0896 58.6049 29.0745 58.9978 29.0745H63.8259V32.1119H52.6283V30.2532C52.6283 29.9812 52.6661 29.7319 52.7416 29.5052C52.8172 29.2634 52.9381 29.0443 53.1043 28.8478L57.0031 24.6771C57.9249 23.725 58.6276 22.8788 59.1111 22.1383C59.6098 21.3979 59.8516 20.7556 59.8365 20.2116C59.8214 19.8792 59.7307 19.6374 59.5645 19.4863C59.4134 19.3352 59.1791 19.2369 58.8618 19.1916C58.5444 19.1463 58.1515 19.1236 57.6831 19.1236C57.1542 19.1236 56.6555 19.1312 56.1871 19.1463C55.7337 19.1463 55.2426 19.1614 54.7137 19.1916C54.1999 19.2218 53.5954 19.2672 52.9003 19.3276L52.7643 16.7435C53.5048 16.5773 54.1697 16.4564 54.759 16.3809C55.3635 16.3053 55.9302 16.26 56.4591 16.2449C57.0031 16.2146 57.5395 16.1995 58.0684 16.1995Z" fill="#240079"/>
</svg>
