<svg width="275" height="101" viewBox="0 0 275 101" fill="none" xmlns="http://www.w3.org/2000/svg">
<rect width="123" height="16.6552" fill="white"/>
<rect y="15.0689" width="9.73381" height="76.931" fill="white"/>
<rect x="6.19434" y="82.4827" width="115.036" height="9.51724" fill="white"/>
<rect x="112.381" y="61.8621" width="8.84892" height="26.9655" fill="white"/>
<path d="M20.85 32.8L41.8 41.1V46.85L20.85 55.05V49.25L35.55 43.95L20.85 38.6V32.8ZM66.0313 59V63.7H43.7812V59H66.0313Z" fill="white"/>
<path d="M92.224 25.728C93.952 25.728 95.44 25.884 96.688 26.196C97.936 26.484 98.908 27.048 99.604 27.888C100.3 28.728 100.648 29.94 100.648 31.524C100.648 32.46 100.528 33.336 100.288 34.152C100.072 34.944 99.664 35.772 99.064 36.636C98.488 37.5 97.648 38.52 96.544 39.696L90.028 46.428C90.628 46.332 91.228 46.272 91.828 46.248C92.452 46.2 93.076 46.176 93.7 46.176H101.368V51H83.584V48.048C83.584 47.616 83.644 47.22 83.764 46.86C83.884 46.476 84.076 46.128 84.34 45.816L90.532 39.192C91.996 37.68 93.112 36.336 93.88 35.16C94.672 33.984 95.056 32.964 95.032 32.1C95.008 31.572 94.864 31.188 94.6 30.948C94.36 30.708 93.988 30.552 93.484 30.48C92.98 30.408 92.356 30.372 91.612 30.372C90.772 30.372 89.98 30.384 89.236 30.408C88.516 30.408 87.736 30.432 86.896 30.48C86.08 30.528 85.12 30.6 84.016 30.696L83.8 26.592C84.976 26.328 86.032 26.136 86.968 26.016C87.928 25.896 88.828 25.824 89.668 25.8C90.532 25.752 91.384 25.728 92.224 25.728ZM130.854 26.16C132.15 26.16 132.822 26.832 132.87 28.176L133.806 51H128.73L127.902 30.408H127.254L123.258 45.888C123.042 47.04 122.322 47.616 121.098 47.616H117.642C116.418 47.616 115.674 47.04 115.41 45.888L111.414 30.408H110.802L110.046 51H104.934L105.87 28.176C105.918 26.832 106.602 26.16 107.922 26.16H113.07C114.246 26.16 114.966 26.748 115.23 27.924L118.434 40.416C118.578 40.992 118.698 41.58 118.794 42.18C118.89 42.756 118.998 43.344 119.118 43.944H119.586C119.706 43.344 119.814 42.756 119.91 42.18C120.03 41.58 120.15 40.98 120.27 40.38L123.438 27.924C123.678 26.748 124.398 26.16 125.598 26.16H130.854ZM148.243 25.656C150.211 25.656 151.879 25.872 153.247 26.304C154.615 26.712 155.707 27.408 156.523 28.392C157.363 29.352 157.975 30.672 158.359 32.352C158.743 34.008 158.935 36.084 158.935 38.58C158.935 41.076 158.743 43.164 158.359 44.844C157.975 46.5 157.363 47.82 156.523 48.804C155.707 49.764 154.615 50.46 153.247 50.892C151.879 51.3 150.211 51.504 148.243 51.504C146.275 51.504 144.607 51.3 143.239 50.892C141.871 50.46 140.767 49.764 139.927 48.804C139.087 47.82 138.475 46.5 138.091 44.844C137.707 43.164 137.515 41.076 137.515 38.58C137.515 36.084 137.707 34.008 138.091 32.352C138.475 30.672 139.087 29.352 139.927 28.392C140.767 27.408 141.871 26.712 143.239 26.304C144.607 25.872 146.275 25.656 148.243 25.656ZM148.243 30.012C146.971 30.012 145.975 30.264 145.255 30.768C144.559 31.272 144.055 32.148 143.743 33.396C143.455 34.62 143.311 36.348 143.311 38.58C143.311 40.788 143.455 42.516 143.743 43.764C144.055 45.012 144.559 45.888 145.255 46.392C145.975 46.896 146.971 47.148 148.243 47.148C149.491 47.148 150.463 46.896 151.159 46.392C151.879 45.888 152.383 45.012 152.671 43.764C152.983 42.516 153.139 40.788 153.139 38.58C153.139 36.348 152.983 34.62 152.671 33.396C152.383 32.148 151.879 31.272 151.159 30.768C150.463 30.264 149.491 30.012 148.243 30.012ZM172.705 25.8C174.889 25.8 176.653 26.028 177.997 26.484C179.365 26.916 180.361 27.672 180.985 28.752C181.633 29.808 181.957 31.284 181.957 33.18C181.957 34.332 181.801 35.352 181.489 36.24C181.201 37.104 180.709 37.8 180.013 38.328C179.317 38.856 178.369 39.192 177.169 39.336V39.516C177.601 39.588 178.045 39.756 178.501 40.02C178.981 40.284 179.425 40.68 179.833 41.208C180.241 41.712 180.541 42.396 180.733 43.26L182.893 51H177.097L175.189 43.44C174.973 42.624 174.649 42.06 174.217 41.748C173.809 41.436 173.233 41.28 172.489 41.28C170.857 41.28 169.477 41.28 168.349 41.28C167.245 41.256 166.309 41.232 165.541 41.208C164.797 41.184 164.125 41.16 163.525 41.136L163.633 37.14H172.597C173.557 37.14 174.313 37.044 174.865 36.852C175.441 36.636 175.837 36.264 176.053 35.736C176.293 35.208 176.413 34.476 176.413 33.54C176.413 32.58 176.293 31.848 176.053 31.344C175.837 30.816 175.441 30.456 174.865 30.264C174.313 30.048 173.557 29.94 172.597 29.94C170.341 29.94 168.433 29.952 166.873 29.976C165.313 30 164.245 30.036 163.669 30.084L163.129 26.16C164.137 26.04 165.085 25.956 165.973 25.908C166.861 25.86 167.833 25.836 168.889 25.836C169.945 25.812 171.217 25.8 172.705 25.8ZM168.565 26.16V51H163.129V26.16H168.565ZM196.013 25.8C198.197 25.8 199.961 26.028 201.305 26.484C202.673 26.916 203.669 27.672 204.293 28.752C204.941 29.808 205.265 31.284 205.265 33.18C205.265 34.332 205.109 35.352 204.797 36.24C204.509 37.104 204.017 37.8 203.321 38.328C202.625 38.856 201.677 39.192 200.477 39.336V39.516C200.909 39.588 201.353 39.756 201.809 40.02C202.289 40.284 202.733 40.68 203.141 41.208C203.549 41.712 203.849 42.396 204.041 43.26L206.201 51H200.405L198.497 43.44C198.281 42.624 197.957 42.06 197.525 41.748C197.117 41.436 196.541 41.28 195.797 41.28C194.165 41.28 192.785 41.28 191.657 41.28C190.553 41.256 189.617 41.232 188.849 41.208C188.105 41.184 187.433 41.16 186.833 41.136L186.941 37.14H195.905C196.865 37.14 197.621 37.044 198.173 36.852C198.749 36.636 199.145 36.264 199.361 35.736C199.601 35.208 199.721 34.476 199.721 33.54C199.721 32.58 199.601 31.848 199.361 31.344C199.145 30.816 198.749 30.456 198.173 30.264C197.621 30.048 196.865 29.94 195.905 29.94C193.649 29.94 191.741 29.952 190.181 29.976C188.621 30 187.553 30.036 186.977 30.084L186.437 26.16C187.445 26.04 188.393 25.956 189.281 25.908C190.169 25.86 191.141 25.836 192.197 25.836C193.253 25.812 194.525 25.8 196.013 25.8ZM191.873 26.16V51H186.437V26.16H191.873ZM219.54 25.656C221.508 25.656 223.176 25.872 224.544 26.304C225.912 26.712 227.004 27.408 227.82 28.392C228.66 29.352 229.272 30.672 229.656 32.352C230.04 34.008 230.232 36.084 230.232 38.58C230.232 41.076 230.04 43.164 229.656 44.844C229.272 46.5 228.66 47.82 227.82 48.804C227.004 49.764 225.912 50.46 224.544 50.892C223.176 51.3 221.508 51.504 219.54 51.504C217.572 51.504 215.904 51.3 214.536 50.892C213.168 50.46 212.064 49.764 211.224 48.804C210.384 47.82 209.772 46.5 209.388 44.844C209.004 43.164 208.812 41.076 208.812 38.58C208.812 36.084 209.004 34.008 209.388 32.352C209.772 30.672 210.384 29.352 211.224 28.392C212.064 27.408 213.168 26.712 214.536 26.304C215.904 25.872 217.572 25.656 219.54 25.656ZM219.54 30.012C218.268 30.012 217.272 30.264 216.552 30.768C215.856 31.272 215.352 32.148 215.04 33.396C214.752 34.62 214.608 36.348 214.608 38.58C214.608 40.788 214.752 42.516 215.04 43.764C215.352 45.012 215.856 45.888 216.552 46.392C217.272 46.896 218.268 47.148 219.54 47.148C220.788 47.148 221.76 46.896 222.456 46.392C223.176 45.888 223.68 45.012 223.968 43.764C224.28 42.516 224.436 40.788 224.436 38.58C224.436 36.348 224.28 34.62 223.968 33.396C223.68 32.148 223.176 31.272 222.456 30.768C221.76 30.264 220.788 30.012 219.54 30.012ZM266.036 26.16L261.968 49.488C261.896 49.92 261.68 50.28 261.32 50.568C260.96 50.856 260.528 51 260.024 51H254.876C254.396 51 253.964 50.856 253.58 50.568C253.22 50.28 253.004 49.908 252.932 49.452L250.16 33.288C250.088 32.736 250.016 32.196 249.944 31.668C249.872 31.116 249.8 30.576 249.728 30.048H249.044C248.996 30.576 248.936 31.116 248.864 31.668C248.792 32.22 248.72 32.76 248.648 33.288L245.876 49.452C245.804 49.908 245.576 50.28 245.192 50.568C244.832 50.856 244.412 51 243.932 51H238.748C238.268 51 237.836 50.856 237.452 50.568C237.092 50.28 236.876 49.92 236.804 49.488L232.736 26.16H238.28L240.872 43.44C240.944 43.968 241.004 44.532 241.052 45.132C241.1 45.732 241.148 46.368 241.196 47.04H241.88C241.976 46.464 242.072 45.864 242.168 45.24C242.288 44.592 242.384 43.992 242.456 43.44L245.192 27.852C245.264 27.348 245.48 26.94 245.84 26.628C246.2 26.316 246.632 26.16 247.136 26.16H251.672C252.176 26.16 252.596 26.316 252.932 26.628C253.292 26.94 253.508 27.348 253.58 27.852L256.352 43.476C256.448 44.052 256.544 44.652 256.64 45.276C256.736 45.876 256.82 46.464 256.892 47.04H257.612C257.66 46.464 257.708 45.864 257.756 45.24C257.828 44.616 257.888 44.04 257.936 43.512L260.492 26.16H266.036ZM164.689 69.16V94H159.181V69.16H164.689ZM172.177 69.16V73.48H151.729V69.16H172.177ZM184.841 68.656C186.809 68.656 188.477 68.872 189.845 69.304C191.213 69.712 192.305 70.408 193.121 71.392C193.961 72.352 194.573 73.672 194.957 75.352C195.341 77.008 195.533 79.084 195.533 81.58C195.533 84.076 195.341 86.164 194.957 87.844C194.573 89.5 193.961 90.82 193.121 91.804C192.305 92.764 191.213 93.46 189.845 93.892C188.477 94.3 186.809 94.504 184.841 94.504C182.873 94.504 181.205 94.3 179.837 93.892C178.469 93.46 177.365 92.764 176.525 91.804C175.685 90.82 175.073 89.5 174.689 87.844C174.305 86.164 174.113 84.076 174.113 81.58C174.113 79.084 174.305 77.008 174.689 75.352C175.073 73.672 175.685 72.352 176.525 71.392C177.365 70.408 178.469 69.712 179.837 69.304C181.205 68.872 182.873 68.656 184.841 68.656ZM184.841 73.012C183.569 73.012 182.573 73.264 181.853 73.768C181.157 74.272 180.653 75.148 180.341 76.396C180.053 77.62 179.909 79.348 179.909 81.58C179.909 83.788 180.053 85.516 180.341 86.764C180.653 88.012 181.157 88.888 181.853 89.392C182.573 89.896 183.569 90.148 184.841 90.148C186.089 90.148 187.061 89.896 187.757 89.392C188.477 88.888 188.981 88.012 189.269 86.764C189.581 85.516 189.737 83.788 189.737 81.58C189.737 79.348 189.581 77.62 189.269 76.396C188.981 75.148 188.477 74.272 187.757 73.768C187.061 73.264 186.089 73.012 184.841 73.012ZM209.626 68.656C211.594 68.656 213.262 68.872 214.63 69.304C215.998 69.712 217.09 70.408 217.906 71.392C218.746 72.352 219.358 73.672 219.742 75.352C220.126 77.008 220.318 79.084 220.318 81.58C220.318 84.076 220.126 86.164 219.742 87.844C219.358 89.5 218.746 90.82 217.906 91.804C217.09 92.764 215.998 93.46 214.63 93.892C213.262 94.3 211.594 94.504 209.626 94.504C207.658 94.504 205.99 94.3 204.622 93.892C203.254 93.46 202.15 92.764 201.31 91.804C200.47 90.82 199.858 89.5 199.474 87.844C199.09 86.164 198.898 84.076 198.898 81.58C198.898 79.084 199.09 77.008 199.474 75.352C199.858 73.672 200.47 72.352 201.31 71.392C202.15 70.408 203.254 69.712 204.622 69.304C205.99 68.872 207.658 68.656 209.626 68.656ZM209.626 73.012C208.354 73.012 207.358 73.264 206.638 73.768C205.942 74.272 205.438 75.148 205.126 76.396C204.838 77.62 204.694 79.348 204.694 81.58C204.694 83.788 204.838 85.516 205.126 86.764C205.438 88.012 205.942 88.888 206.638 89.392C207.358 89.896 208.354 90.148 209.626 90.148C210.874 90.148 211.846 89.896 212.542 89.392C213.262 88.888 213.766 88.012 214.054 86.764C214.366 85.516 214.522 83.788 214.522 81.58C214.522 79.348 214.366 77.62 214.054 76.396C213.766 75.148 213.262 74.272 212.542 73.768C211.846 73.264 210.874 73.012 209.626 73.012ZM229.947 69.16V87.736C229.947 88.336 230.115 88.792 230.451 89.104C230.787 89.416 231.267 89.572 231.891 89.572H240.567L240.819 93.712C239.115 93.904 237.327 94.012 235.455 94.036C233.607 94.084 231.759 94.108 229.911 94.108C228.111 94.108 226.743 93.628 225.807 92.668C224.895 91.684 224.439 90.436 224.439 88.924V69.16H229.947ZM252.02 68.692C253.244 68.692 254.576 68.764 256.016 68.908C257.456 69.028 258.86 69.292 260.228 69.7L259.868 73.336C258.812 73.312 257.576 73.288 256.16 73.264C254.744 73.24 253.352 73.228 251.984 73.228C251.312 73.228 250.736 73.252 250.256 73.3C249.8 73.324 249.428 73.42 249.14 73.588C248.852 73.732 248.648 73.96 248.528 74.272C248.408 74.584 248.348 75.016 248.348 75.568C248.348 76.408 248.54 77.02 248.924 77.404C249.332 77.788 250.016 78.136 250.976 78.448L255.764 79.996C257.756 80.668 259.136 81.58 259.904 82.732C260.672 83.884 261.056 85.396 261.056 87.268C261.056 88.684 260.888 89.86 260.552 90.796C260.216 91.732 259.688 92.464 258.968 92.992C258.248 93.52 257.3 93.892 256.124 94.108C254.948 94.348 253.508 94.468 251.804 94.468C250.988 94.468 249.824 94.408 248.312 94.288C246.8 94.192 245.072 93.928 243.128 93.496L243.488 89.608C244.904 89.632 246.128 89.668 247.16 89.716C248.216 89.74 249.116 89.764 249.86 89.788C250.604 89.788 251.252 89.788 251.804 89.788C252.764 89.788 253.508 89.728 254.036 89.608C254.588 89.488 254.972 89.248 255.188 88.888C255.404 88.528 255.512 88.012 255.512 87.34C255.512 86.764 255.428 86.308 255.26 85.972C255.116 85.612 254.864 85.336 254.504 85.144C254.168 84.928 253.7 84.736 253.1 84.568L248.06 82.84C246.164 82.144 244.82 81.232 244.028 80.104C243.236 78.976 242.84 77.488 242.84 75.64C242.84 74.2 243.008 73.036 243.344 72.148C243.704 71.236 244.244 70.528 244.964 70.024C245.708 69.52 246.656 69.172 247.808 68.98C248.984 68.788 250.388 68.692 252.02 68.692Z" fill="white"/>
</svg>
